<svg width="32" height="32" viewBox="0 0 32 32" fill="none" xmlns="http://www.w3.org/2000/svg">
<rect width="32" height="32" rx="16" fill="white" fill-opacity="0.1"/>
<path fill-rule="evenodd" clip-rule="evenodd" d="M9.15128 9.15147C9.61991 8.68284 10.3797 8.68284 10.8483 9.15147L15.9998 14.3029L21.1513 9.15147C21.6199 8.68284 22.3797 8.68284 22.8483 9.15147C23.317 9.6201 23.317 10.3799 22.8483 10.8485L17.6969 16L22.8483 21.1515C23.317 21.6201 23.317 22.3799 22.8483 22.8485C22.3797 23.3172 21.6199 23.3172 21.1513 22.8485L15.9998 17.6971L10.8483 22.8485C10.3797 23.3172 9.61991 23.3172 9.15128 22.8485C8.68265 22.3799 8.68265 21.6201 9.15128 21.1515L14.3027 16L9.15128 10.8485C8.68265 10.3799 8.68265 9.6201 9.15128 9.15147Z" fill="white"/>
</svg>
