<svg width="40" height="40" viewBox="0 0 40 40" fill="none" xmlns="http://www.w3.org/2000/svg">
<path d="M0 0.999999C0 0.447714 0.447715 0 1 0H39C39.5523 0 40 0.447715 40 1V39C40 39.5523 39.5523 40 39 40H0.999999C0.447714 40 0 39.5523 0 39V0.999999Z" fill="white"/>
<path fill-rule="evenodd" clip-rule="evenodd" d="M28.64 20.2046C28.64 19.5664 28.5827 18.9527 28.4764 18.3636H20V21.845H24.8436C24.635 22.97 24.0009 23.9232 23.0477 24.5614V26.8196H25.9564C27.6582 25.2527 28.64 22.9455 28.64 20.2046Z" fill="#4285F4"/>
<path fill-rule="evenodd" clip-rule="evenodd" d="M19.9998 29C22.4298 29 24.467 28.1941 25.9561 26.8195L23.0475 24.5613C22.2416 25.1013 21.2107 25.4204 19.9998 25.4204C17.6557 25.4204 15.6716 23.8372 14.9638 21.71H11.957V24.0418C13.4379 26.9831 16.4816 29 19.9998 29Z" fill="#34A853"/>
<path fill-rule="evenodd" clip-rule="evenodd" d="M14.9641 21.71C14.7841 21.17 14.6818 20.5932 14.6818 20C14.6818 19.4068 14.7841 18.83 14.9641 18.29V15.9582H11.9573C11.3477 17.1732 11 18.5477 11 20C11 21.4523 11.3477 22.8268 11.9573 24.0418L14.9641 21.71Z" fill="#FBBC05"/>
<path fill-rule="evenodd" clip-rule="evenodd" d="M19.9998 14.5795C21.3211 14.5795 22.5075 15.0336 23.4402 15.9255L26.0216 13.3441C24.4629 11.8918 22.4257 11 19.9998 11C16.4816 11 13.4379 13.0168 11.957 15.9582L14.9638 18.29C15.6716 16.1627 17.6557 14.5795 19.9998 14.5795Z" fill="#EA4335"/>
</svg>
