<svg width="24" height="24" viewBox="0 0 40 24" fill="none" xmlns="http://www.w3.org/2000/svg">
<path d="M16.3999 13C15.7372 13 15.1999 13.4477 15.1999 14C15.1999 14.5523 15.7372 15 16.3999 15H23.5999C24.2626 15 24.7999 14.5523 24.7999 14C24.7999 13.4477 24.2626 13 23.5999 13H16.3999Z" fill="white"/>
<path d="M12.7999 17C12.7999 16.4477 13.3372 16 13.9999 16H25.9999C26.6626 16 27.1999 16.4477 27.1999 17C27.1999 17.5523 26.6626 18 25.9999 18H13.9999C13.3372 18 12.7999 17.5523 12.7999 17Z" fill="white"/>
<path d="M10.3999 21C10.3999 19.8954 11.4744 19 12.7999 19H27.1999C28.5254 19 29.5999 19.8954 29.5999 21V25C29.5999 26.1046 28.5254 27 27.1999 27H12.7999C11.4744 27 10.3999 26.1046 10.3999 25V21Z" fill="white"/>
</svg>
