<svg width="32" height="27" viewBox="0 0 32 27" fill="none" xmlns="http://www.w3.org/2000/svg">

<path d="M9.63652 3.82361C12.3138 3.53586 13.8901 3.84446 14.3572 4.07382C14.3572 4.07382 11.1711 1.33818 8.34793 1.73018C8.34793 1.73018 10.3329 0.266444 15.112 3.5442C15.112 3.5442 10.9084 -3.84118 4.20695 2.71017C4.21112 2.72685 6.87586 4.11552 9.63652 3.82361ZM19.8576 2.54336H19.8868C20.0161 2.51 20.0703 2.28481 20.0078 2.04294C19.9452 1.80107 19.8034 1.62592 19.6741 1.65928C18.8435 1.74683 18.055 2.069 17.4007 2.58815C16.7464 3.10729 16.2534 3.80195 15.9794 4.59092C17.0094 3.4191 18.2438 2.56421 19.8576 2.54336ZM29.449 8.93207C29.8863 9.25107 30.2621 9.64668 30.5583 10.0997C30.8792 10.5881 31.0436 11.1627 31.0295 11.7469C31.0227 11.8971 31.0031 12.0463 30.9711 12.1932C30.957 12.265 30.9389 12.336 30.9169 12.4058C30.9169 12.4267 30.9169 12.4434 30.9169 12.4642C30.9169 12.4851 30.8877 12.5685 30.8669 12.6185C30.8166 12.7547 30.7567 12.8871 30.6876 13.0147L30.5833 13.2023C30.5631 13.2419 30.5394 13.2796 30.5124 13.3149L30.4666 13.3817C30.1538 13.8388 29.7743 14.2465 29.3406 14.591C28.9248 14.9213 28.4827 15.2169 28.0187 15.4751C27.5599 15.7295 27.0845 15.9588 26.6091 16.1632C26.1306 16.3621 25.642 16.5361 25.1454 16.6844L24.6158 16.8471C24.7409 17.3266 24.8493 17.8104 24.9411 18.3025C25.0805 19.0065 25.1642 19.7204 25.1913 20.4376C25.1989 20.8038 25.1836 21.1701 25.1454 21.5344C25.1335 21.6743 25.114 21.8135 25.087 21.9514C25.087 21.9889 25.087 22.0306 25.0662 22.0723C25.0453 22.114 25.0662 22.1766 25.0328 22.2308C25.0221 22.2705 25.0137 22.3109 25.0078 22.3517C25.0078 22.4435 24.9619 22.5352 24.9327 22.6228C24.8404 23.0069 24.6885 23.3742 24.4824 23.7112C24.2502 24.0621 23.9424 24.3566 23.5816 24.5731C23.2208 24.7896 22.8161 24.9225 22.3973 24.9622C21.9968 25.0082 21.5915 24.9913 21.1963 24.9122C21.0948 24.9008 20.9944 24.8812 20.896 24.8538L20.7792 24.8246L20.6041 24.8163C20.4206 24.7621 20.2413 24.7037 20.0661 24.6328C19.7178 24.4948 19.378 24.336 19.0486 24.1574C18.4036 23.8042 17.7898 23.3968 17.2137 22.9397C16.7967 22.6311 16.4131 22.3017 16.0336 21.9555C15.6541 22.2975 15.2621 22.6353 14.8618 22.9397C14.2835 23.3901 13.6699 23.7931 13.0269 24.1449C12.6979 24.3243 12.3581 24.4831 12.0093 24.6203C11.8676 24.6787 11.7174 24.7287 11.5715 24.7746L11.4714 24.8038C11.4032 24.8276 11.3336 24.8471 11.2629 24.8622H11.192L10.9043 24.9247C10.509 25.0038 10.1037 25.0207 9.70324 24.9748C9.28475 24.9336 8.88061 24.8 8.52003 24.5837C8.15944 24.3673 7.8514 24.0736 7.61815 23.7237C7.39679 23.3972 7.23055 23.0365 7.12607 22.6561C7.0923 22.567 7.06716 22.4748 7.05101 22.3809C7.05101 22.3517 7.05101 22.3183 7.02182 22.285C7.00137 22.2272 6.98875 22.1668 6.98429 22.1057L6.95926 21.9514C6.92926 21.8143 6.9125 21.6746 6.90922 21.5344C6.86889 21.1702 6.85356 20.8038 6.86335 20.4376C6.8813 19.7167 6.95801 18.9984 7.09271 18.29C7.18028 17.8104 7.28871 17.3266 7.41381 16.8471L6.9968 16.7136C6.50054 16.5593 6.0168 16.38 5.53723 16.184C5.05328 15.9834 4.58003 15.7579 4.11937 15.5084C3.65493 15.2498 3.21028 14.9571 2.78909 14.6327C2.354 14.2957 1.96925 13.8983 1.64646 13.4525C1.56463 13.3461 1.48943 13.2346 1.42127 13.1189C1.42127 13.0897 1.39208 13.0647 1.37957 13.0397L1.29616 12.9313L1.21276 12.7311C1.1579 12.5956 1.11329 12.4562 1.07931 12.3141C1.05925 12.2431 1.0453 12.1706 1.03761 12.0972C1.01933 12.0206 1.00816 11.9424 1.00425 11.8637C0.972637 11.2784 1.11795 10.6972 1.42127 10.1956C1.70911 9.7296 2.07933 9.31981 2.51385 8.98629L2.67232 8.86535L2.83079 8.7611L2.94755 8.68186C3.01303 8.63219 3.08125 8.58625 3.15189 8.54425C3.21919 8.50873 3.28461 8.46975 3.34789 8.42748L3.50636 8.34408L3.84831 8.16893C4.75749 7.72278 5.71443 7.38142 6.70071 7.15141L6.51723 7.23064C6.10021 7.40579 5.72072 7.57677 5.33707 7.78111C4.89217 7.99928 4.46175 8.24583 4.04848 8.51923C3.63986 8.78566 3.25729 9.09004 2.90585 9.42833C2.56264 9.74262 2.27995 10.1172 2.07182 10.5334C1.87552 10.9191 1.8041 11.3564 1.86748 11.7845C1.94667 12.202 2.13355 12.5915 2.4096 12.9146C2.70468 13.2609 3.0456 13.5653 3.42295 13.8195C3.81141 14.0857 4.21992 14.3213 4.64482 14.5243C5.5168 14.9333 6.42227 15.2667 7.35126 15.521L7.79747 15.6377C7.9476 15.179 8.10606 14.7245 8.27704 14.2699C8.003 13.4756 7.86209 12.6414 7.86002 11.8012C7.86002 4.96207 13.2813 4.22394 15.0703 4.71185C14.2447 5.36348 13.5572 6.17294 13.0477 7.09303C12.54 8.01291 12.2223 9.02546 12.1136 10.0705C11.9733 11.1646 12.0515 12.2757 12.3435 13.3394C12.6356 14.4031 13.1357 15.3983 13.815 16.2674C12.8247 14.6442 12.4145 12.7329 12.6516 10.8462C12.9935 8.11055 14.4114 5.46249 16.8217 4.74105C18.6858 4.18224 24.228 4.72019 24.228 11.797C24.2312 12.6486 24.0902 13.4946 23.811 14.2991C23.9694 14.7161 24.1279 15.1748 24.2697 15.621L24.7743 15.4626C25.7029 15.2081 26.6072 14.8717 27.4765 14.4576C27.8995 14.2487 28.3065 14.0089 28.6942 13.7403C29.0652 13.4859 29.3992 13.1814 29.6867 12.8354C29.9632 12.5068 30.1397 12.106 30.1955 11.6802C30.2464 11.2487 30.1635 10.8119 29.9578 10.4292C29.7405 10.0168 29.451 9.64669 29.1029 9.33658C28.7443 9.00133 28.3579 8.6972 27.9478 8.42748C27.5298 8.16326 27.0968 7.92376 26.6508 7.71021C26.2338 7.5017 25.8168 7.32239 25.3998 7.14307L25.2705 7.08469C26.2563 7.31338 27.2141 7.64898 28.1271 8.08553C28.601 8.31909 29.0483 8.6029 29.4615 8.93207H29.449ZM23.0144 15.8879C23.2813 15.8337 23.5441 15.7712 23.8068 15.7086C23.7317 15.4209 23.6483 15.129 23.5649 14.8329C23.4031 15.1955 23.2193 15.5478 23.0144 15.8879ZM9.03601 15.8879C8.82258 15.5368 8.63579 15.1702 8.47721 14.7912C8.38129 15.0914 8.29789 15.3959 8.21866 15.7086C8.51057 15.7878 8.76495 15.8504 9.03601 15.9004V15.8879ZM12.4055 23.069C12.9675 22.7165 13.499 22.3175 13.9944 21.8763C14.3381 21.5819 14.6652 21.2686 14.9743 20.938C13.1921 20.1204 11.5891 18.9582 10.2579 17.5185C10.1568 17.5065 10.0565 17.4884 9.95762 17.4643C9.27371 17.3433 8.5898 17.1849 7.91423 17.0014C7.82249 17.4601 7.74743 17.9271 7.68905 18.39C7.60213 19.0675 7.56728 19.7506 7.58479 20.4334C7.59823 20.7712 7.62885 21.108 7.67653 21.4426C7.69739 21.5802 7.72658 21.7095 7.75577 21.8596C7.75577 21.8846 7.75577 21.9138 7.77662 21.943L7.81415 22.0806C7.81415 22.1098 7.81415 22.1432 7.84334 22.1766C7.87253 22.2099 7.88921 22.3267 7.9184 22.4018C8.09293 22.9694 8.46987 23.4532 8.97763 23.7612C9.5003 24.0049 10.095 24.045 10.6457 23.8738C10.7209 23.8608 10.7949 23.8412 10.8667 23.8154L11.0127 23.7737L11.1294 23.7362L11.2879 23.6695C11.3797 23.632 11.4797 23.5944 11.5673 23.5485C11.8566 23.4112 12.1366 23.2552 12.4055 23.0815V23.069ZM24.4407 20.4376C24.4662 19.7595 24.4383 19.0804 24.3572 18.4067C24.2947 17.9397 24.2196 17.4684 24.1321 17.0014C23.4898 17.1807 22.8351 17.3266 22.1804 17.4517L21.8051 17.5226C20.476 18.9373 18.8857 20.0815 17.122 20.8921L17.0594 20.9505C17.3805 21.2758 17.71 21.5844 18.0478 21.8805C18.5468 22.3258 19.0809 22.7302 19.6449 23.0898C19.9194 23.2615 20.205 23.4147 20.4998 23.5485C20.5999 23.5986 20.7 23.6361 20.8043 23.6778L20.9419 23.732L21.0211 23.7737L21.1295 23.8071C21.2021 23.8318 21.2758 23.8527 21.3505 23.8697C21.6264 23.966 21.9192 24.0043 22.2106 23.9821C22.502 23.9598 22.7856 23.8775 23.0436 23.7404C23.3024 23.6023 23.5285 23.4103 23.7067 23.1774C23.8885 22.9461 24.0192 22.6789 24.0904 22.3934C24.1204 22.3201 24.1454 22.2449 24.1654 22.1682C24.1732 22.1357 24.183 22.1037 24.1946 22.0723C24.1946 22.0264 24.2196 21.9847 24.2321 21.9347V21.8596C24.2613 21.7262 24.2947 21.5886 24.3114 21.4426C24.3755 21.1106 24.4187 20.775 24.4407 20.4376ZM9.63652 3.82361C12.3138 3.53586 13.8901 3.84446 14.3572 4.07382C14.3572 4.07382 11.1711 1.33818 8.34793 1.73018C8.34793 1.73018 10.3329 0.266444 15.112 3.5442C15.112 3.5442 10.9084 -3.84118 4.20695 2.71017C4.21112 2.72685 6.87586 4.11552 9.63652 3.82361ZM19.8576 2.54336H19.8868C20.0161 2.51 20.0703 2.28481 20.0078 2.04294C19.9452 1.80107 19.8034 1.62592 19.6741 1.65928C18.8435 1.74683 18.055 2.069 17.4007 2.58815C16.7464 3.10729 16.2534 3.80195 15.9794 4.59092C17.0094 3.4191 18.2438 2.56421 19.8576 2.54336ZM29.449 8.93207C29.8863 9.25107 30.2621 9.64668 30.5583 10.0997C30.8792 10.5881 31.0436 11.1627 31.0295 11.7469C31.0227 11.8971 31.0031 12.0463 30.9711 12.1932C30.957 12.265 30.9389 12.336 30.9169 12.4058C30.9169 12.4267 30.9169 12.4434 30.9169 12.4642C30.9169 12.4851 30.8877 12.5685 30.8669 12.6185C30.8166 12.7547 30.7567 12.8871 30.6876 13.0147L30.5833 13.2023C30.5631 13.2419 30.5394 13.2796 30.5124 13.3149L30.4666 13.3817C30.1538 13.8388 29.7743 14.2465 29.3406 14.591C28.9248 14.9213 28.4827 15.2169 28.0187 15.4751C27.5599 15.7295 27.0845 15.9588 26.6091 16.1632C26.1306 16.3621 25.642 16.5361 25.1454 16.6844L24.6158 16.8471C24.7409 17.3266 24.8493 17.8104 24.9411 18.3025C25.0805 19.0065 25.1642 19.7204 25.1913 20.4376C25.1989 20.8038 25.1836 21.1701 25.1454 21.5344C25.1335 21.6743 25.114 21.8135 25.087 21.9514C25.087 21.9889 25.087 22.0306 25.0662 22.0723C25.0453 22.114 25.0662 22.1766 25.0328 22.2308C25.0221 22.2705 25.0137 22.3109 25.0078 22.3517C25.0078 22.4435 24.9619 22.5352 24.9327 22.6228C24.8404 23.0069 24.6885 23.3742 24.4824 23.7112C24.2502 24.0621 23.9424 24.3566 23.5816 24.5731C23.2208 24.7896 22.8161 24.9225 22.3973 24.9622C21.9968 25.0082 21.5915 24.9913 21.1963 24.9122C21.0948 24.9008 20.9944 24.8812 20.896 24.8538L20.7792 24.8246L20.6041 24.8163C20.4206 24.7621 20.2413 24.7037 20.0661 24.6328C19.7178 24.4948 19.378 24.336 19.0486 24.1574C18.4036 23.8042 17.7898 23.3968 17.2137 22.9397C16.7967 22.6311 16.4131 22.3017 16.0336 21.9555C15.6541 22.2975 15.2621 22.6353 14.8618 22.9397C14.2835 23.3901 13.6699 23.7931 13.0269 24.1449C12.6979 24.3243 12.3581 24.4831 12.0093 24.6203C11.8676 24.6787 11.7174 24.7287 11.5715 24.7746L11.4714 24.8038C11.4032 24.8276 11.3336 24.8471 11.2629 24.8622H11.192L10.9043 24.9247C10.509 25.0038 10.1037 25.0207 9.70324 24.9748C9.28475 24.9336 8.88061 24.8 8.52003 24.5837C8.15944 24.3673 7.8514 24.0736 7.61815 23.7237C7.39679 23.3972 7.23055 23.0365 7.12607 22.6561C7.0923 22.567 7.06716 22.4748 7.05101 22.3809C7.05101 22.3517 7.05101 22.3183 7.02182 22.285C7.00137 22.2272 6.98875 22.1668 6.98429 22.1057L6.95926 21.9514C6.92926 21.8143 6.9125 21.6746 6.90922 21.5344C6.86889 21.1702 6.85356 20.8038 6.86335 20.4376C6.8813 19.7167 6.95801 18.9984 7.09271 18.29C7.18028 17.8104 7.28871 17.3266 7.41381 16.8471L6.9968 16.7136C6.50054 16.5593 6.0168 16.38 5.53723 16.184C5.05328 15.9834 4.58003 15.7579 4.11937 15.5084C3.65493 15.2498 3.21028 14.9571 2.78909 14.6327C2.354 14.2957 1.96925 13.8983 1.64646 13.4525C1.56463 13.3461 1.48943 13.2346 1.42127 13.1189C1.42127 13.0897 1.39208 13.0647 1.37957 13.0397L1.29616 12.9313L1.21276 12.7311C1.1579 12.5956 1.11329 12.4562 1.07931 12.3141C1.05925 12.2431 1.0453 12.1706 1.03761 12.0972C1.01933 12.0206 1.00816 11.9424 1.00425 11.8637C0.972637 11.2784 1.11795 10.6972 1.42127 10.1956C1.70911 9.7296 2.07933 9.31981 2.51385 8.98629L2.67232 8.86535L2.83079 8.7611L2.94755 8.68186C3.01303 8.63219 3.08125 8.58625 3.15189 8.54425C3.21919 8.50873 3.28461 8.46975 3.34789 8.42748L3.50636 8.34408L3.84831 8.16893C4.75749 7.72278 5.71443 7.38142 6.70071 7.15141L6.51723 7.23064C6.10021 7.40579 5.72072 7.57677 5.33707 7.78111C4.89217 7.99928 4.46175 8.24583 4.04848 8.51923C3.63986 8.78566 3.25729 9.09004 2.90585 9.42833C2.56264 9.74262 2.27995 10.1172 2.07182 10.5334C1.87552 10.9191 1.8041 11.3564 1.86748 11.7845C1.94667 12.202 2.13355 12.5915 2.4096 12.9146C2.70468 13.2609 3.0456 13.5653 3.42295 13.8195C3.81141 14.0857 4.21992 14.3213 4.64482 14.5243C5.5168 14.9333 6.42227 15.2667 7.35126 15.521L7.79747 15.6377C7.9476 15.179 8.10606 14.7245 8.27704 14.2699C8.003 13.4756 7.86209 12.6414 7.86002 11.8012C7.86002 4.96207 13.2813 4.22394 15.0703 4.71185C14.2447 5.36348 13.5572 6.17294 13.0477 7.09303C12.54 8.01291 12.2223 9.02546 12.1136 10.0705C11.9733 11.1646 12.0515 12.2757 12.3435 13.3394C12.6356 14.4031 13.1357 15.3983 13.815 16.2674C12.8247 14.6442 12.4145 12.7329 12.6516 10.8462C12.9935 8.11055 14.4114 5.46249 16.8217 4.74105C18.6858 4.18224 24.228 4.72019 24.228 11.797C24.2312 12.6486 24.0902 13.4946 23.811 14.2991C23.9694 14.7161 24.1279 15.1748 24.2697 15.621L24.7743 15.4626C25.7029 15.2081 26.6072 14.8717 27.4765 14.4576C27.8995 14.2487 28.3065 14.0089 28.6942 13.7403C29.0652 13.4859 29.3992 13.1814 29.6867 12.8354C29.9632 12.5068 30.1397 12.106 30.1955 11.6802C30.2464 11.2487 30.1635 10.8119 29.9578 10.4292C29.7405 10.0168 29.451 9.64669 29.1029 9.33658C28.7443 9.00133 28.3579 8.6972 27.9478 8.42748C27.5298 8.16326 27.0968 7.92376 26.6508 7.71021C26.2338 7.5017 25.8168 7.32239 25.3998 7.14307L25.2705 7.08469C26.2563 7.31338 27.2141 7.64898 28.1271 8.08553C28.601 8.31909 29.0483 8.6029 29.4615 8.93207H29.449ZM23.0144 15.8879C23.2813 15.8337 23.5441 15.7712 23.8068 15.7086C23.7317 15.4209 23.6483 15.129 23.5649 14.8329C23.4031 15.1955 23.2193 15.5478 23.0144 15.8879ZM9.03601 15.8879C8.82258 15.5368 8.63579 15.1702 8.47721 14.7912C8.38129 15.0914 8.29789 15.3959 8.21866 15.7086C8.51057 15.7878 8.76495 15.8504 9.03601 15.9004V15.8879ZM12.4055 23.069C12.9675 22.7165 13.499 22.3175 13.9944 21.8763C14.3381 21.5819 14.6652 21.2686 14.9743 20.938C13.1921 20.1204 11.5891 18.9582 10.2579 17.5185C10.1568 17.5065 10.0565 17.4884 9.95762 17.4643C9.27371 17.3433 8.5898 17.1849 7.91423 17.0014C7.82249 17.4601 7.74743 17.9271 7.68905 18.39C7.60213 19.0675 7.56728 19.7506 7.58479 20.4334C7.59823 20.7712 7.62885 21.108 7.67653 21.4426C7.69739 21.5802 7.72658 21.7095 7.75577 21.8596C7.75577 21.8846 7.75577 21.9138 7.77662 21.943L7.81415 22.0806C7.81415 22.1098 7.81415 22.1432 7.84334 22.1766C7.87253 22.2099 7.88921 22.3267 7.9184 22.4018C8.09293 22.9694 8.46987 23.4532 8.97763 23.7612C9.5003 24.0049 10.095 24.045 10.6457 23.8738C10.7209 23.8608 10.7949 23.8412 10.8667 23.8154L11.0127 23.7737L11.1294 23.7362L11.2879 23.6695C11.3797 23.632 11.4797 23.5944 11.5673 23.5485C11.8566 23.4112 12.1366 23.2552 12.4055 23.0815V23.069ZM24.4407 20.4376C24.4662 19.7595 24.4383 19.0804 24.3572 18.4067C24.2947 17.9397 24.2196 17.4684 24.1321 17.0014C23.4898 17.1807 22.8351 17.3266 22.1804 17.4517L21.8051 17.5226C20.476 18.9373 18.8857 20.0815 17.122 20.8921L17.0594 20.9505C17.3805 21.2758 17.71 21.5844 18.0478 21.8805C18.5468 22.3258 19.0809 22.7302 19.6449 23.0898C19.9194 23.2615 20.205 23.4147 20.4998 23.5485C20.5999 23.5986 20.7 23.6361 20.8043 23.6778L20.9419 23.732L21.0211 23.7737L21.1295 23.8071C21.2021 23.8318 21.2758 23.8527 21.3505 23.8697C21.6264 23.966 21.9192 24.0043 22.2106 23.9821C22.502 23.9598 22.7856 23.8775 23.0436 23.7404C23.3024 23.6023 23.5285 23.4103 23.7067 23.1774C23.8885 22.9461 24.0192 22.6789 24.0904 22.3934C24.1204 22.3201 24.1454 22.2449 24.1654 22.1682C24.1732 22.1357 24.183 22.1037 24.1946 22.0723C24.1946 22.0264 24.2196 21.9847 24.2321 21.9347V21.8596C24.2613 21.7262 24.2947 21.5886 24.3114 21.4426C24.3755 21.1106 24.4187 20.775 24.4407 20.4376Z" fill="white"/>

<defs>
<filter id="filter0_d_34_475" x="0.362521" y="0" width="31.3052" height="26.275" filterUnits="userSpaceOnUse" color-interpolation-filters="sRGB">
<feFlood flood-opacity="0" result="BackgroundImageFix"/>
<feColorMatrix in="SourceAlpha" type="matrix" values="0 0 0 0 0 0 0 0 0 0 0 0 0 0 0 0 0 0 127 0" result="hardAlpha"/>
<feOffset dy="0.637479"/>
<feGaussianBlur stdDeviation="0.31874"/>
<feComposite in2="hardAlpha" operator="out"/>
<feColorMatrix type="matrix" values="0 0 0 0 0.819608 0 0 0 0 0.443137 0 0 0 0 0.65098 0 0 0 1 0"/>
<feBlend mode="normal" in2="BackgroundImageFix" result="effect1_dropShadow_34_475"/>
<feBlend mode="normal" in="SourceGraphic" in2="effect1_dropShadow_34_475" result="shape"/>
</filter>
</defs>
</svg>
