<svg width="32" height="32" viewBox="0 0 32 32" fill="none" xmlns="http://www.w3.org/2000/svg">
<rect width="32" height="32" rx="16" fill="white" fill-opacity="0.1"/>
<path d="M16.0001 6.4C12.0237 6.4 8.80013 9.62355 8.80013 13.6V17.9029L7.9516 18.7515C7.60841 19.0947 7.50574 19.6108 7.69148 20.0592C7.87721 20.5076 8.31478 20.8 8.80013 20.8H23.2001C23.6855 20.8 24.1231 20.5076 24.3088 20.0592C24.4945 19.6108 24.3919 19.0947 24.0487 18.7515L23.2001 17.9029V13.6C23.2001 9.62355 19.9766 6.4 16.0001 6.4Z" fill="white"/>
<path d="M16.0001 25.6C14.0119 25.6 12.4001 23.9882 12.4001 22H19.6001C19.6001 23.9882 17.9883 25.6 16.0001 25.6Z" fill="white"/>
</svg>
