<svg width="32" height="32" viewBox="0 0 32 32" fill="none" xmlns="http://www.w3.org/2000/svg">
<rect width="32" height="32" rx="16" fill="white" fill-opacity="0.1"/>
<g clip-path="url(#clip0_292_3697)">
<path fill-rule="evenodd" clip-rule="evenodd" d="M7.35217 8.49026C7.7298 8.33476 8.15446 8.54069 8.4221 8.84914C8.43571 8.86483 8.44959 8.88033 8.4637 8.8956C8.6482 9.09536 8.87133 9.25559 9.11957 9.36656C9.36781 9.47754 9.636 9.53697 9.90789 9.54124C10.1798 9.54551 10.4497 9.49456 10.7013 9.39143C10.9529 9.28831 11.181 9.13519 11.3716 8.94134C11.5623 8.74749 11.7117 8.51693 11.8106 8.26366C11.9096 8.01039 11.9561 7.73966 11.9473 7.46789C11.9463 7.43454 11.9444 7.40128 11.9416 7.36811C11.9094 6.97544 12.0485 6.54705 12.4052 6.37971L12.9924 6.10423C13.3216 5.96705 13.6916 5.96521 14.0221 6.09913C14.3526 6.23305 14.617 6.4919 14.7579 6.81952L15.4489 8.41566C15.4224 8.4687 15.3973 8.52261 15.3737 8.57734L15.3727 8.57986L10.8166 19.1037L10.3214 20.2292L6.0982 10.4569C5.97068 10.1405 5.96724 9.78764 6.08856 9.46883C6.20988 9.15001 6.44703 8.88871 6.75262 8.73713L7.35217 8.49026ZM23.5273 11.3529C23.792 11.0419 24.2167 10.8366 24.5943 10.9921L25.2277 11.2529C25.5413 11.4084 25.7846 11.6765 25.9091 12.0037C26.0336 12.3308 26.03 12.6929 25.8991 13.0176L20.6521 25.159C20.5076 25.4953 20.2363 25.7609 19.8972 25.8983C19.558 26.0357 19.1784 26.0339 18.8406 25.893L12.5001 23.1913C12.1639 23.0467 11.8983 22.7756 11.7609 22.4363C11.6235 22.0971 11.6254 21.7176 11.7661 21.3797L12.4533 19.8181L17.0132 9.28514C17.1577 8.94896 17.429 8.68333 17.7682 8.54591C18.1073 8.4085 18.487 8.41039 18.8247 8.55114L19.4442 8.84176C19.8009 9.00909 19.9404 9.43713 19.9046 9.8295C19.901 9.86969 19.8985 9.91001 19.8972 9.95044C19.8882 10.2293 19.9359 10.5071 20.0374 10.767C20.139 11.0269 20.2923 11.2635 20.4879 11.4624C20.6836 11.6613 20.9176 11.8185 21.1757 11.9243C21.434 12.0301 21.711 12.0824 21.99 12.078C22.269 12.0736 22.5441 12.0126 22.7989 11.8988C23.0536 11.7849 23.2826 11.6205 23.4719 11.4155C23.4909 11.395 23.5093 11.3741 23.5273 11.3529Z" fill="white"/>
</g>
<defs>
<clipPath id="clip0_292_3697">
<rect width="20" height="20" fill="white" transform="translate(6 6)"/>
</clipPath>
</defs>
</svg>
